<svg width="20" height="20" viewBox="0 0 20 20" fill="none" xmlns="http://www.w3.org/2000/svg">
<path d="M2.5 5.32165C2.5 4.91793 2.78782 4.59066 3.14286 4.59066L5.36306 4.59027C5.80419 4.57755 6.19335 4.25861 6.34345 3.78677C6.3474 3.77436 6.35193 3.75906 6.36821 3.70353L6.46388 3.37713C6.52242 3.17701 6.57342 3.00266 6.64479 2.84681C6.92674 2.23113 7.4484 1.8036 8.05122 1.69414C8.20381 1.66643 8.3654 1.66655 8.55088 1.66669H11.4493C11.6347 1.66655 11.7963 1.66643 11.9489 1.69414C12.5517 1.8036 13.0734 2.23113 13.3554 2.84681C13.4267 3.00266 13.4777 3.17701 13.5363 3.37713L13.6319 3.70353C13.6482 3.75906 13.6527 3.77436 13.6567 3.78677C13.8068 4.25861 14.2732 4.57795 14.7143 4.59066H16.8571C17.2122 4.59066 17.5 4.91793 17.5 5.32165C17.5 5.72536 17.2122 6.05263 16.8571 6.05263H3.14286C2.78782 6.05263 2.5 5.72536 2.5 5.32165Z" fill="#333333"/>
<path fill-rule="evenodd" clip-rule="evenodd" d="M9.663 18.3334H10.337C12.6559 18.3334 13.8154 18.3334 14.5693 17.5952C15.3231 16.8569 15.4003 15.6459 15.5545 13.2239L15.7768 9.73394C15.8605 8.41978 15.9023 7.7627 15.5241 7.34632C15.1459 6.92993 14.5073 6.92993 13.23 6.92993H6.77004C5.49272 6.92993 4.85407 6.92993 4.47588 7.34632C4.09769 7.7627 4.13953 8.41978 4.22323 9.73394L4.44549 13.2239C4.59975 15.6459 4.67687 16.8569 5.43074 17.5952C6.18461 18.3334 7.34407 18.3334 9.663 18.3334ZM8.53856 10.1572C8.50422 9.79563 8.19794 9.53185 7.85448 9.56801C7.51101 9.60416 7.26042 9.92656 7.29477 10.2881L7.71143 14.6741C7.74578 15.0356 8.05206 15.2994 8.39552 15.2632C8.73899 15.2271 8.98958 14.9047 8.95523 14.5431L8.53856 10.1572ZM12.1455 9.56801C12.489 9.60416 12.7396 9.92656 12.7052 10.2881L12.2886 14.6741C12.2542 15.0356 11.9479 15.2994 11.6045 15.2632C11.261 15.2271 11.0104 14.9047 11.0448 14.5431L11.4614 10.1572C11.4958 9.79563 11.8021 9.53185 12.1455 9.56801Z" fill="#333333"/>
</svg>
