<svg width="20" height="20" viewBox="0 0 20 20" fill="none" xmlns="http://www.w3.org/2000/svg">
<path d="M9.50038 15.1343L9.50041 15.1343L15.6636 8.9711C14.8248 8.62198 13.8313 8.0485 12.8917 7.1089C11.952 6.16915 11.3784 5.17548 11.0293 4.33659L4.86601 10.4999L4.86597 10.5C4.38504 10.9809 4.14455 11.2214 3.93774 11.4865C3.69377 11.7993 3.4846 12.1378 3.31394 12.4959C3.16927 12.7994 3.06172 13.1221 2.84663 13.7674L1.71237 17.1701C1.60652 17.4877 1.68916 17.8378 1.92585 18.0745C2.16254 18.3112 2.51264 18.3938 2.83019 18.288L6.23298 17.1537C6.87825 16.9386 7.20091 16.8311 7.50447 16.6864C7.86257 16.5157 8.20101 16.3066 8.5138 16.0626C8.77895 15.8558 9.01945 15.6153 9.50038 15.1343Z" fill="#1C274C"/>
<path d="M17.3738 7.26088C18.6536 5.98113 18.6536 3.90624 17.3738 2.62648C16.0941 1.34673 14.0192 1.34673 12.7394 2.62648L12.0002 3.36568C12.0104 3.39625 12.0209 3.42724 12.0318 3.45863C12.3027 4.23958 12.8139 5.26334 13.7756 6.22502C14.7373 7.1867 15.761 7.69791 16.542 7.96885C16.5732 7.97969 16.6041 7.99014 16.6345 8.00022L17.3738 7.26088Z" fill="#1C274C"/>
</svg>
